<svg xmlns="http://www.w3.org/2000/svg" viewBox="0 0 512 512" fill="#ffffff"><path d="m466.208 67.125-42.667-42.667c-4.167-4.167-10.917-4.167-15.083 0-4.167 4.167-4.167 10.917 0 15.083l35.125 35.125-35.125 35.125c-2 2-3.125 4.708-3.125 7.542v32C405.333 172.865 424.469 192 448 192v181.333c0 5.885-4.781 10.667-10.667 10.667-5.885 0-10.667-4.781-10.667-10.667V352c0-17.646-14.354-32-32-32H384V42.667C384 19.135 364.865 0 341.333 0H128c-23.531 0-42.667 19.135-42.667 42.667v384c-23.531 0-42.667 19.135-42.667 42.667v32a10.66 10.66 0 0 0 10.667 10.667H416a10.66 10.66 0 0 0 10.667-10.667v-32c0-23.531-19.135-42.667-42.667-42.667v-85.333h10.667c5.885 0 10.667 4.781 10.667 10.667v21.333c0 17.646 14.354 32 32 32s32-14.354 32-32V74.667a10.664 10.664 0 0 0-3.126-7.542zM106.667 42.667c0-11.76 9.573-21.333 21.333-21.333h213.333c11.76 0 21.333 9.573 21.333 21.333v384h-256v-384zm298.666 426.666v21.333H64v-21.333C64 457.573 73.573 448 85.333 448H384c11.76 0 21.333 9.573 21.333 21.333zM448 170.667c-11.76 0-21.333-9.573-21.333-21.333V121.75L448 100.417v70.25z" /><path d="M330.667 42.667h-192A10.66 10.66 0 0 0 128 53.334v128.198a10.66 10.66 0 0 0 10.667 10.667h192a10.66 10.66 0 0 0 10.667-10.667V53.333a10.661 10.661 0 0 0-10.667-10.666zM320 170.865H149.333V64H320v106.865z" /></svg>