<svg xmlns="http://www.w3.org/2000/svg" viewBox="0 0 400 400" fill="#ffffff"><path fill-rule="evenodd" d="M33.333 100v25h20.486c12.593 0 21.222 2.007 22.396 5.208 1.528 4.167 3.014 4.167 7.431 0 3.036-2.864 13.583-5.208 23.437-5.208H125V75H33.333v25M275 100v25h17.917c9.854 0 20.401 2.344 23.437 5.208 4.417 4.167 5.903 4.167 7.431 0 1.174-3.201 9.803-5.208 22.396-5.208h20.486V75H275v25m-162.5 0v12.5H45.833v-25H112.5V100m241.667 0v12.5H287.5v-25h66.667V100M75 143.75c0 3.438 2.813 6.25 6.25 6.25 3.438 0 6.25-2.812 6.25-6.25 0-3.437-2.812-6.25-6.25-6.25-3.437 0-6.25 2.813-6.25 6.25m237.5 0c0 3.438 2.813 6.25 6.25 6.25 3.438 0 6.25-2.812 6.25-6.25 0-3.437-2.812-6.25-6.25-6.25-3.437 0-6.25 2.813-6.25 6.25M75 167.748c0 5.178-3.75 11.756-8.333 14.618-5.308 3.315-8.334 9.717-8.334 17.634s3.026 14.319 8.334 17.634c4.583 2.862 8.333 9.44 8.333 14.618 0 5.591 2.539 9.415 6.25 9.415 3.779 0 6.25-3.864 6.25-9.771 0-22.151 6.784-23.563 113.224-23.563 106.411 0 111.776 1.166 111.776 24.287 0 5.264 2.613 9.047 6.25 9.047 3.711 0 6.25-3.824 6.25-9.415 0-5.178 3.75-11.756 8.333-14.618 11.201-6.995 11.201-28.273 0-35.268-4.583-2.862-8.333-9.44-8.333-14.618 0-5.591-2.539-9.415-6.25-9.415-3.779 0-6.25 3.864-6.25 9.771 0 22.151-6.784 23.563-113.224 23.563-106.411 0-111.776-1.166-111.776-24.287 0-5.264-2.613-9.047-6.25-9.047-3.711 0-6.25 3.824-6.25 9.415m10.641 28.448c4.294 6.948-5.363 14.915-11.111 9.167-4.808-4.808-1.799-13.696 4.637-13.696 2.021 0 4.934 2.038 6.474 4.529m241.667 0c4.294 6.948-5.364 14.915-11.112 9.167-4.808-4.808-1.798-13.696 4.637-13.696 2.022 0 4.935 2.038 6.475 4.529M75 256.25c0 3.438 2.813 6.25 6.25 6.25 3.438 0 6.25-2.812 6.25-6.25 0-3.437-2.812-6.25-6.25-6.25-3.437 0-6.25 2.813-6.25 6.25m237.5 0c0 3.438 2.813 6.25 6.25 6.25 3.438 0 6.25-2.812 6.25-6.25 0-3.437-2.812-6.25-6.25-6.25-3.437 0-6.25 2.813-6.25 6.25M75 270.833c0 2.292-9.375 4.167-20.833 4.167H33.333v50H125v-50h-18.504c-10.177 0-19.663-1.875-21.079-4.167-1.417-2.291-4.34-4.166-6.496-4.166-2.157 0-3.921 1.875-3.921 4.166m239.583 0c-1.416 2.292-10.902 4.167-21.079 4.167H275v50h91.667v-50h-20.834c-11.458 0-20.833-1.875-20.833-4.167 0-2.291-1.764-4.166-3.921-4.166-2.156 0-5.079 1.875-6.496 4.166M112.5 300v12.5H45.833v-25H112.5V300m241.667 0v12.5H287.5v-25h66.667V300"/></svg>