<svg xmlns="http://www.w3.org/2000/svg" version="1.0" viewBox="0 0 96 96" fill="#ffffff"><path d="M41.6 6.9c-.3.4-3.6 1.1-7.3 1.4C20 9.6 12 14.6 12 22.4c0 2.9.7 5.2 2.1 7l2.1 2.7-6.1 6.4C.7 48.3.5 47.8 21.2 68.7c22.9 23 19.3 23.1 43.4-.8l18.2-18.1 1.7 2.5c1.4 2.2 1.6 4.2.9 14-.7 11.5-.7 11.5 1.8 13.1 2.9 1.9 7.1.9 8.2-1.9.3-.9.6-7.2.6-13.9 0-11.1-.2-12.7-2.6-17.4C89.8 38.9 79 30.5 66.3 25 63 23.6 58.5 20.1 53 14.5c-8.1-8.1-10.2-9.6-11.4-7.6zM62 29.1l17.3 18.1-17.4 17.4C48.8 77.8 43.9 82 42 82 38.5 82 8 51.5 8 48c0-1.6 1.9-4.4 5.7-8.2 5.6-5.7 5.6-5.7 8.5-4.2 3.7 1.9 15 4.4 20.1 4.4 2 0 4.6.5 5.6 1.2 3.5 2.2 7.7-1.6 5.1-4.7-1-1.2-2.6-1.4-7.5-.9-12.7 1.3-28.2-4.5-29.9-11.1-1.4-5.6 5.5-10.8 16.1-12.1l4.8-.6-7.5 7.6c-6.1 6.2-7.2 7.8-6 8.6 1.2.7 3.6-1.1 10.5-8 4.9-5 9.5-9 10.1-9 .6 0 8.9 8.1 18.4 18.1zm22.1 11.7c7.3 6.7 8.1 9.3 7.7 24.2-.2 9.4-.6 11.5-1.8 11.5-1.7 0-1.7-.9-.5-12.7.4-4.2.4-8.9.1-10.4-.4-1.6-4.9-7.1-10.4-12.7-8.9-9.1-9.3-9.8-5.3-7.6 2.4 1.3 7 4.8 10.2 7.7z"/></svg>