<svg xmlns="http://www.w3.org/2000/svg" viewBox="0 0 60 60" fill="#ffffff"><path d="M55 28h-2a3 3 0 0 0-3 3v1h-2v-5a3 3 0 0 0-3-3h-3a1 1 0 0 1-1-1v-2a3 3 0 0 0-3-3h-4v-3h5a3 3 0 0 0 0-6H19a3 3 0 0 0 0 6h5v3h-5a3 3 0 0 0-3 3 1 1 0 0 1-1 1h-3a3 3 0 0 0-3 3v4H6v-4a3 3 0 0 0-6 0v16a3 3 0 0 0 6 0v-4h3v5a3 3 0 0 0 3 3h4.172a1 1 0 0 1 .707.293l4.828 4.828a2.978 2.978 0 0 0 2.121.879H45a3 3 0 0 0 3-3v-4h2v1a3 3 0 0 0 3 3h2a5.006 5.006 0 0 0 5-5V33a5.006 5.006 0 0 0-5-5zM18 12a1 1 0 0 1 1-1h20a1 1 0 0 1 0 2H19a1 1 0 0 1-1-1zm8 3h6v3h-6zM4 41a1 1 0 0 1-2 0V25a1 1 0 0 1 2 0zm2-6v-4h3v4zm40 13a1 1 0 0 1-1 1H23.828a1 1 0 0 1-.707-.293l-4.828-4.828A2.982 2.982 0 0 0 16.172 43H12a1 1 0 0 1-1-1V25a1 1 0 0 1 1-1h3a3 3 0 0 0 3-3 1 1 0 0 1 1-1h19a1 1 0 0 1 1 1v2a3 3 0 0 0 3 3h3a1 1 0 0 1 1 1zm2-6v-8h2v8zm10 1a3 3 0 0 1-3 3h-2a1 1 0 0 1-1-1V31a1 1 0 0 1 1-1h2a3 3 0 0 1 3 3z"/></svg>